<?xml version="1.0" encoding="iso-8859-1"?>
<!-- Generator: Adobe Illustrator 21.0.0, SVG Export Plug-In . SVG Version: 6.00 Build 0)  -->
<svg version="1.1" id="&#x56FE;&#x5C42;_1" xmlns="http://www.w3.org/2000/svg" xmlns:xlink="http://www.w3.org/1999/xlink" x="0px"
	 y="0px" viewBox="0 0 176 270" style="enable-background:new 0 0 176 270;" xml:space="preserve">
<path d="M830.262,50.352h-4.997c-0.52,0-1,0.42-1.07,0.93l-0.37,2.619c-0.07,0.51,0.29,0.93,0.81,0.93h6.247
	c0.52,0,0.88-0.42,0.81-0.93l-0.37-2.619C831.261,50.772,830.781,50.352,830.262,50.352"/>
<path d="M333.97,197.19h-12.843c-2.244,0-4.063,1.819-4.063,4.063v61.776c0,2.244,1.819,4.063,4.063,4.063h12.843
	c2.244,0,4.063-1.819,4.063-4.063v-61.776C338.032,199.008,336.213,197.19,333.97,197.19z M329.332,258.429
	c-1.104,0.637-2.463,0.637-3.567,0c-1.104-0.637-1.783-1.815-1.783-3.089c0-1.274,0.68-2.452,1.783-3.089
	c1.104-0.637,2.463-0.637,3.567,0c1.104,0.637,1.783,1.815,1.783,3.089C331.115,256.614,330.435,257.792,329.332,258.429z
	 M331.115,245.065h-7.134V206.69h7.134V245.065z M358.486,197.19h-12.843c-2.244,0-4.063,1.819-4.063,4.063v61.776
	c0,2.244,1.819,4.063,4.063,4.063h12.843c2.244,0,4.063-1.819,4.063-4.063v-61.776C362.548,199.008,360.729,197.19,358.486,197.19z
	 M353.848,258.429c-1.104,0.637-2.463,0.637-3.567,0c-1.104-0.637-1.783-1.815-1.783-3.089c0-1.274,0.68-2.452,1.783-3.089
	c1.104-0.637,2.463-0.637,3.567,0c1.104,0.637,1.783,1.815,1.783,3.089C355.631,256.614,354.951,257.792,353.848,258.429z
	 M355.631,245.065h-7.134V206.69h7.134V245.065z M383.002,197.19h-12.843c-2.244,0-4.063,1.819-4.063,4.063v61.776
	c0,2.244,1.819,4.063,4.063,4.063h12.843c2.244,0,4.063-1.819,4.063-4.063v-61.776C387.065,199.008,385.246,197.19,383.002,197.19z
	 M378.364,258.429c-1.104,0.637-2.463,0.637-3.567,0c-1.104-0.637-1.783-1.815-1.783-3.089c0-1.274,0.68-2.452,1.783-3.089
	c1.104-0.637,2.463-0.637,3.567,0c1.104,0.637,1.783,1.815,1.783,3.089C380.148,256.614,379.468,257.792,378.364,258.429z
	 M380.148,245.065h-7.134V206.69h7.134V245.065z"/>
<path d="M368.597,104.106c-10.29,0-18.48,8.436-18.48,18.655c0,7.84,5.04,16.695,9.345,22.75c2.572,3.634,5.365,7.105,8.365,10.395
	c0.321,0.299,0.467,0.383,0.77,0.385c0.359,0,0.557-0.183,0.769-0.385c1.75-1.75,5.04-5.705,8.365-10.395
	c4.27-6.09,9.345-14.91,9.345-22.75C387.077,112.542,378.712,104.106,368.597,104.106z M368.597,133.926
	c-4.61,0.043-8.79-2.701-10.584-6.948c-1.794-4.247-0.847-9.157,2.398-12.433c3.245-3.275,8.146-4.268,12.409-2.513
	c4.264,1.755,7.047,5.909,7.047,10.519C379.892,128.803,374.849,133.893,368.597,133.926z M385.118,165.46 M364.436,158.109
	l-41.951-4.7l4.292-14.427c0.252-0.848,1.032-1.43,1.917-1.43h21.356c1.845,3.829,4.084,7.366,6.147,10.268
	C358.727,151.396,361.499,154.851,364.436,158.109z M380.114,149.043l3.45,11.209l-11.629-1.303
	c0.085-0.073,0.175-0.136,0.258-0.215C373.861,157.068,376.879,153.495,380.114,149.043z M347.169,174.106h-28.159
	c-1.338,0-2.298-1.288-1.917-2.57l3.944-13.258l28.702,3.215L347.169,174.106z M385.168,165.463l1.864,6.055
	c0.396,1.286-0.566,2.588-1.912,2.588h-32.848l2.456-12.053L385.168,165.463z"/>
<path d="M431.9,135.639c8.953,0,16.164-7.462,15.75-16.508c-0.367-8.029-6.972-14.637-15.001-15.008
	c-9.047-0.419-16.516,6.793-16.516,15.749C416.133,128.58,423.193,135.639,431.9,135.639L431.9,135.639z M431.9,135.639
	 M432.232,158.162l-25.275,0c-1.16,0-2.092-0.986-2.001-2.142c0.741-9.454,6.348-17.54,14.317-21.759
	c3.371,2.96,7.789,4.756,12.628,4.756c2.694,0,5.248-0.573,7.573-1.577c-4.614,4.29-7.507,10.406-7.507,17.188
	C431.965,155.829,432.057,157.009,432.232,158.162z M449.987,135.928c-7.376,2.126-12.895,8.546-13.86,16.161
	c-1.508,11.894,7.761,22.017,19.317,22.017c11.12,0,20.122-9.412,19.443-20.673C474.165,141.475,462.328,132.372,449.987,135.928z
	 M443.983,149.302h18.64l-2.298-2.48c-0.693-0.73-0.656-1.97,0.109-2.699c0.73-0.693,1.97-0.656,2.699,0.11l5.107,5.617
	c0,0,0.834,0.852,0.401,1.97c-0.471,1.164-1.715,1.131-1.715,1.131H444.02c-1.058,0-1.897-0.839-1.897-1.897
	C442.123,150.141,442.962,149.302,443.983,149.302z M466.905,160.026h-18.64l2.298,2.48c0.693,0.73,0.656,1.97-0.109,2.7
	c-0.73,0.693-1.97,0.656-2.699-0.11l-5.107-5.617c0,0-0.834-0.852-0.401-1.97c0.471-1.164,1.715-1.131,1.715-1.131h22.907
	c1.058,0,1.897,0.839,1.897,1.897C468.766,159.187,467.927,160.026,466.905,160.026z M468.932,151.756"/>
<g>
	<g>
		<defs>
			<rect id="SVGID_1_" x="344.064" y="35.743" width="24.017" height="6.707"/>
		</defs>
		<clipPath id="SVGID_2_">
			<use xlink:href="#SVGID_1_"  style="overflow:visible;"/>
		</clipPath>
		<path style="clip-path:url(#SVGID_2_);" d="M360.927,37.994c0.115-0.117,0.228-0.239,0.338-0.365
			c0.867,0.349,3.841,1.299,6.815-0.636c0,0-4.384,0.663-5.586-1.219c0.005-0.01,0.011-0.021,0.016-0.031
			c0,0-0.007,0.008-0.022,0.022c-0.005-0.007-0.009-0.015-0.014-0.022l-0.163,0.199c-0.527,0.518-1.444,1.542-3.001,2.26
			c-1.408,0.649-3.293,0.914-4.842,0.905c-3.829-0.021-5.461-2.125-6.37-2.735c-0.832-0.45-0.904-0.75-1.967-0.246
			c-1.415,0.671-2.071,2.371-2.071,2.371c2.071-0.849,3.551-0.201,3.935,0.066c0.023,0.017,0.045,0.033,0.068,0.049l0,0
			c0.304,0.218,0.623,0.417,0.953,0.597c-0.152,0.86-1.173,1.326-1.173,1.326c1.445-0.224,1.848-0.556,2.132-0.871
			c0.322,0.132,0.653,0.247,0.993,0.346c-0.102,1.049-1.199,1.824-1.199,1.824c1.467-0.254,2.007-1.154,2.186-1.586
			c0.386,0.074,0.781,0.128,1.183,0.162c0.305,0.845-0.163,2.007-0.163,2.007c0.748-0.598,1.098-1.592,1.207-1.965
			c0.357-0.001,0.705-0.014,1.044-0.039c0.173,0.38,0.671,1.363,1.413,1.956c0,0-0.494-0.941-0.273-2.095
			c0.272-0.047,0.537-0.103,0.796-0.169c0.244,0.36,1.025,1.212,3.018,1.394c0,0-1.636-0.524-1.593-1.886
			c0.245-0.109,0.482-0.23,0.711-0.361c0.4,0.356,1.845,1.36,5.247,1.128C364.546,40.379,361.544,39.927,360.927,37.994
			L360.927,37.994z M360.927,37.994"/>
	</g>
</g>
<g>
	<path d="M323.665,39.097c0-2.755,1.543-5.147,3.812-6.364c-4.971,1.676-8.6,6.365-8.6,6.365s3.628,4.688,8.598,6.363
		C325.208,44.243,323.665,41.85,323.665,39.097L323.665,39.097z M323.665,39.097"/>
	<path d="M334.292,32.732c2.269,1.217,3.812,3.609,3.812,6.364c0,2.754-1.543,5.146-3.811,6.364c4.97-1.676,8.599-6.363,8.599-6.363
		S339.263,34.408,334.292,32.732L334.292,32.732z M334.292,32.732"/>
	<path d="M335.717,36.055c-0.052,1.377-1.181,2.478-2.571,2.478c-1.423,0-2.576-1.154-2.576-2.576c0-1.102,0.694-2.041,1.668-2.408
		c-0.435-0.106-0.886-0.168-1.353-0.168c-3.157,0-5.715,2.559-5.715,5.715c0,3.156,2.559,5.715,5.715,5.715
		c3.156,0,5.715-2.559,5.715-5.715C336.6,37.977,336.273,36.937,335.717,36.055L335.717,36.055z M335.717,36.055"/>
</g>
<path d="M629.634,163.297c-0.469,6.047-5.513,10.81-11.68,10.81s-11.211-4.763-11.68-10.81H629.634z M649.951,159.297
	c-10.984,0-20.013,0-31.998,0s-21.014,0-31.998,0c-0.002-7.978,4.56-9.665,8.81-15.853c4.729-6.729,4.125-15.963,4.125-15.963
	c-0.674-8.185,2.457-12.808,7.456-15.034l-0.084,0.872l2.595,1.183c2.461,1.123,5.691,1.741,9.095,1.741s6.635-0.618,9.096-1.741
	l2.595-1.183l-0.084-0.872c4.999,2.226,8.13,6.85,7.456,15.034c0,0-0.604,9.233,4.125,15.963
	C645.391,149.631,649.953,151.319,649.951,159.297z M627.953,137.553c0-1.381-1.119-2.5-2.5-2.5h-5v-3.333
	c0-1.381-1.119-2.5-2.5-2.5s-2.5,1.119-2.5,2.5v3.333h-5c-1.381,0-2.5,1.119-2.5,2.5s1.119,2.5,2.5,2.5h5v3.333
	c0,1.381,1.119,2.5,2.5,2.5s2.5-1.119,2.5-2.5v-3.333h5C626.834,140.053,627.953,138.934,627.953,137.553z M617.953,104.106
	c-3.886,0-7.071,2.966-7.435,6.757c1.856,0.847,4.496,1.38,7.435,1.38s5.579-0.533,7.435-1.38
	C625.024,107.072,621.839,104.106,617.953,104.106z"/>
<path d="M702.108,160.033c-0.389,1.048-0.94,2.02-1.622,2.903c-6.736-3.091-11.416-9.89-11.416-17.786
	c0-0.541,0.028-1.076,0.071-1.606c0.227-0.011,0.455-0.016,0.682-0.016c0.743,0,1.492,0.057,2.192,0.163
	c1.559,0.262,3.043,0.79,4.415,1.568l0.085,0.046c0.962,0.495,1.846,1.127,2.619,1.868c0.546,0.53,1.05,1.111,1.499,1.731
	c0.198,0.327,0.423,0.576,0.655,0.764c0.057,0.316,0.174,0.622,0.346,0.901c0.094,0.175,0.169,0.363,0.221,0.557l0.042,0.157
	l0.063,0.149c0.546,1.297,0.829,2.669,0.841,4.06c0,0.303-0.014,0.606-0.027,0.91c-0.014,0.332-0.028,0.665-0.031,1.001
	C702.643,158.3,702.432,159.179,702.108,160.033z M699.384,132.613l0.07,0.071l0.064,0.076c0.491,0.581,1.042,1.12,1.638,1.603
	c1.74,1.162,3.749,1.939,5.816,2.249c0.275,0.041,0.559,0.064,0.843,0.067c0.348,0,0.677,0.061,0.979,0.172
	c0.273-0.103,0.571-0.166,0.888-0.18c1.459-0.083,2.904-0.415,4.273-0.987c0.619-0.269,1.253-0.604,1.851-0.983
	c1.239-0.783,2.302-1.781,3.16-2.968l0.09-0.116c0.531-0.646,0.983-1.347,1.36-2.086c-3.277-2.476-7.357-3.947-11.782-3.947
	c-4.312,0-8.296,1.398-11.53,3.762C697.673,130.565,698.445,131.675,699.384,132.613z M728.199,145.15
	c0-0.525-0.027-1.043-0.067-1.557c-0.139-0.007-0.278-0.019-0.417-0.021c-2.018,0.001-4.084,0.472-5.935,1.363
	c-1.425,0.72-2.754,1.682-3.912,2.841l-0.068,0.065c-0.3,0.278-0.564,0.59-0.786,0.932c-0.189,0.375-0.459,0.698-0.79,0.946
	c-0.047,0.315-0.15,0.627-0.308,0.925c-0.6,1.22-1.011,2.52-1.222,3.863c-0.068,0.477-0.082,0.994-0.038,1.505l0.008,0.085
	l0.001,0.086c0.027,1.949,0.55,3.875,1.512,5.572c0.221,0.392,0.46,0.77,0.716,1.133
	C723.569,159.773,728.199,153.004,728.199,145.15z M673.181,152.972c0.007,1.033,0.074,2.066,0.198,3.092
	c0.247,1.581,0.69,3.125,1.318,4.597c0.198,0.432,0.478,0.385,0.723,0.187c0.245-0.198,0.07-0.42,0-0.607
	c-0.652-1.932-0.871-3.983-0.642-6.009c0.239-1.966,0.852-3.867,1.808-5.601c0.739-1.343,1.729-2.531,2.917-3.5
	c1.039-0.974,2.219-1.784,3.5-2.404c1.117-0.545,2.291-0.964,3.501-1.248c1.945-0.384,3.943-0.428,5.904-0.128
	c1.825,0.307,3.582,0.931,5.192,1.843c1.166,0.6,2.239,1.367,3.185,2.275c0.678,0.658,1.295,1.377,1.843,2.147
	c0.105,0.198,0.21,0.327,0.443,0.198l1.529-0.887c0.105-0.093,0.163-0.187,0.105-0.362c-0.256-0.721-0.256-1.508,0-2.229
	c0.207-0.679,0.584-1.294,1.097-1.785c0.581-0.539,1.293-0.917,2.065-1.097c0.086-0.009,0.165-0.052,0.218-0.121
	c0.053-0.068,0.076-0.156,0.062-0.241v-1.692c0-0.257-0.116-0.35-0.361-0.35c-0.391-0.005-0.78-0.036-1.167-0.093
	c-2.463-0.37-4.811-1.287-6.872-2.683c-0.743-0.593-1.427-1.257-2.042-1.984c-1.473-1.473-2.594-3.259-3.279-5.227
	c-0.749-2.067-0.973-4.289-0.653-6.464c0.161-1.09,0.43-2.161,0.805-3.197c0.409-1.093,0.97-2.122,1.669-3.057
	c0.459-0.633,0.97-1.227,1.529-1.774c0.764-0.737,1.592-1.404,2.473-1.995c0.98-0.657,2.033-1.197,3.139-1.61
	c0.753-0.319,1.534-0.565,2.334-0.735c0.42-0.07,0.292-0.455,0.292-0.665c0-0.21-0.105-0.21-0.292-0.21
	c-0.809,0.106-1.611,0.254-2.404,0.443c-2.149,0.568-4.204,1.445-6.102,2.602c-1.464,0.918-2.85,1.956-4.142,3.104
	c-0.397,0.408-0.758,0.898-1.167,1.342c-0.755,0.803-1.413,1.692-1.96,2.648c-1.165,1.968-2.004,4.112-2.485,6.347
	c-0.249,1.341-0.401,2.698-0.455,4.06c0.007,1.045,0.108,2.088,0.303,3.115c0.047,0.385-0.082,0.502-0.397,0.607
	c-1.139,0.377-2.231,0.882-3.256,1.505c-1.127,0.642-2.187,1.396-3.162,2.252c-1.167,1.031-2.24,2.163-3.209,3.383
	c-1.525,1.982-2.661,4.235-3.348,6.639c-0.531,1.791-0.794,3.651-0.782,5.519L673.181,152.972z M736.933,167.662
	c-0.198-0.07-0.315,0.058-0.432,0.152c-1.143,0.841-2.411,1.498-3.757,1.948c-0.677,0.253-1.377,0.444-2.088,0.572
	c-1.268,0.21-2.554,0.297-3.839,0.257c-1.507-0.033-3.001-0.288-4.434-0.758c-0.723-0.222-1.353-0.642-2.042-0.922
	c-0.72-0.3-1.399-0.692-2.019-1.167c-1.721-1.299-3.155-2.94-4.212-4.819c-1.161-2.048-1.787-4.355-1.82-6.709
	c-0.059-0.692-0.04-1.389,0.058-2.077c0.25-1.593,0.742-3.14,1.458-4.585c0.152-0.268,0.058-0.408-0.175-0.537
	c-0.432-0.221-1.038-0.548-1.272-0.7c-0.234-0.152-0.408-0.14-0.572,0.07c-0.502,0.544-1.171,0.906-1.902,1.027
	c-0.445,0.118-0.908,0.154-1.365,0.105c-1.064-0.015-2.074-0.471-2.789-1.26c-0.128-0.128-0.268-0.233-0.443-0.128l-1.493,0.863
	c-0.129,0.082-0.245,0.198-0.129,0.35c0.208,0.367,0.369,0.759,0.479,1.167c0.665,1.577,1.013,3.27,1.027,4.982
	c0,0.677-0.058,1.353-0.058,2.042c-0.115,1.138-0.378,2.256-0.782,3.325c-0.526,1.416-1.288,2.734-2.252,3.897
	c-0.751,1.089-1.659,2.06-2.695,2.882c-0.794,0.56-1.645,1.015-2.485,1.505c-1.264,0.671-2.633,1.121-4.049,1.33
	c-1.325,0.198-2.666,0.252-4.002,0.163c-0.591-0.012-1.181-0.075-1.762-0.187c-1.519-0.302-2.985-0.825-4.352-1.552
	c-1.558-0.736-2.945-1.789-4.072-3.092c-0.257-0.35-0.374-0.175-0.653,0c-0.28,0.175-0.292,0.187,0,0.513
	c0.292,0.327,0.607,0.619,0.887,0.957c0.923,1.109,2.004,2.076,3.209,2.87c1.403,0.934,2.901,1.717,4.469,2.334
	c2.834,1.129,5.865,1.68,8.914,1.622c1.467-0.056,2.926-0.231,4.364-0.525c1.277-0.262,2.524-0.653,3.722-1.167
	c1.542-0.607,2.991-1.428,4.306-2.438c0.169-0.153,0.426-0.153,0.595,0c1.038,0.63,2.053,1.271,3.138,1.797
	c1.555,0.767,3.196,1.343,4.889,1.715c1.246,0.259,2.51,0.419,3.78,0.478c1.624,0.083,3.252-0.015,4.854-0.292
	c1.187-0.215,2.357-0.515,3.5-0.898c2.829-0.92,5.435-2.418,7.654-4.399c0.233-0.21,0.548-0.361,0.677-0.688L736.933,167.662z
	 M727.751,141.199c1.457,0.022,2.903,0.254,4.294,0.688c1.114,0.302,2.187,0.737,3.197,1.295c1.222,0.743,2.36,1.615,3.395,2.602
	c1.227,1.156,2.193,2.56,2.835,4.119c0.585,1.207,0.979,2.498,1.167,3.827c0.07,0.63,0.116,1.272,0.175,1.914
	c0.012,0.105-0.012,0.256,0.105,0.268c0.117,0.012,0.117-0.14,0.117-0.245c0.047-0.817,0.081-1.517,0.116-2.334
	c0.035-0.816-0.128-1.622-0.128-2.427c-0.061-1.188-0.269-2.364-0.618-3.5c-0.543-2.166-1.464-4.22-2.719-6.067
	c-0.684-1.008-1.466-1.946-2.333-2.8c-1.415-1.309-2.95-2.481-4.586-3.501c-0.662-0.397-1.352-0.744-2.065-1.038
	c-0.152-0.07-0.292-0.129-0.292-0.362c0.14-0.653,0.14-1.33,0.233-1.983c0.155-1.304,0.135-2.622-0.058-3.92
	c-0.167-1.603-0.561-3.174-1.167-4.667c-0.608-1.583-1.391-3.093-2.333-4.504c-0.726-1.077-1.555-2.081-2.474-2.999
	c-0.999-0.945-2.076-1.804-3.22-2.567c-1.372-0.93-2.839-1.712-4.375-2.334c-1.567-0.649-3.216-1.081-4.901-1.284
	c-0.187-0.023-0.373-0.245-0.455,0.175c-0.082,0.42,0.023,0.63,0.361,0.688c1.576,0.301,3.089,0.873,4.469,1.692
	c1.453,0.805,2.762,1.846,3.874,3.08c1.041,1.169,1.888,2.496,2.509,3.932c0.991,2.352,1.341,4.924,1.015,7.456
	c-0.376,2.469-1.412,4.791-2.999,6.72c-1.032,1.426-2.327,2.642-3.815,3.582c-0.704,0.445-1.441,0.835-2.205,1.167
	c-1.613,0.674-3.33,1.069-5.075,1.167c-0.234,0.011-0.327,0.116-0.327,0.338v1.657c-0.013,0.094,0.013,0.188,0.073,0.262
	c0.06,0.073,0.147,0.118,0.242,0.123c0.415,0.078,0.812,0.237,1.167,0.467c0.984,0.503,1.7,1.411,1.96,2.485
	c0.174,0.661,0.174,1.357,0,2.019c-0.058,0.21-0.198,0.467,0.093,0.63l1.365,0.782c0.086,0.077,0.205,0.105,0.315,0.074
	c0.111-0.031,0.199-0.116,0.233-0.226c0.35-0.573,0.778-1.095,1.272-1.552c1.335-1.336,2.875-2.451,4.562-3.302
	C722.934,141.746,725.327,141.2,727.751,141.199L727.751,141.199z M727.751,141.199"/>
<path d="M519.968,135.839c-8.768,0-15.877-7.108-15.877-15.877c0-8.769,7.109-15.877,15.877-15.877
	c8.768,0,15.877,7.108,15.877,15.877C535.845,128.731,528.736,135.839,519.968,135.839L519.968,135.839z M519.968,135.839
	 M519.986,151.587c0.663-5.23,3.047-9.947,6.614-13.529c-2.069,0.759-4.3,1.183-6.632,1.183c-4.872,0-9.322-1.808-12.716-4.789
	c-8.029,4.251-13.677,12.4-14.419,21.927c-0.09,1.156,0.842,2.142,2.002,2.142h25.301
	C519.753,156.253,519.69,153.919,519.986,151.587z M543.271,174.106c-11.556,0-20.825-10.123-19.317-22.017
	c0.965-7.615,6.484-14.036,13.86-16.161c12.341-3.556,24.178,5.547,24.9,17.505C563.393,164.694,554.391,174.106,543.271,174.106z
	 M550.637,154.076c-0.002-0.1,0.024-0.158,0.101-0.218c0.535-0.418,1.067-0.839,1.598-1.262c0.245-0.196,0.373-0.452,0.409-0.782
	c-0.06-0.171-0.097-0.354-0.185-0.51c-0.584-1.039-1.178-2.072-1.771-3.106c-0.309-0.539-0.765-0.693-1.346-0.459
	c-0.602,0.243-1.203,0.487-1.802,0.735c-0.087,0.036-0.147,0.024-0.226-0.025c-0.296-0.184-0.594-0.366-0.901-0.53
	c-0.113-0.06-0.161-0.128-0.177-0.25c-0.089-0.667-0.18-1.334-0.281-2c-0.077-0.507-0.469-0.834-0.979-0.834
	c-1.212-0.001-2.424,0-3.636,0c-0.522,0-0.909,0.328-0.985,0.843c-0.099,0.676-0.193,1.352-0.286,2.029
	c-0.012,0.09-0.047,0.142-0.129,0.188c-0.317,0.177-0.63,0.361-0.938,0.552c-0.084,0.052-0.149,0.061-0.24,0.023
	c-0.604-0.25-1.209-0.498-1.816-0.742c-0.544-0.218-1.026-0.047-1.315,0.457c-0.59,1.03-1.18,2.06-1.769,3.09
	c-0.288,0.503-0.193,0.998,0.26,1.356c0.521,0.412,1.042,0.824,1.564,1.233c0.066,0.052,0.092,0.103,0.09,0.193
	c-0.01,0.372-0.01,0.745-0.001,1.118c0.002,0.094-0.021,0.15-0.093,0.207c-0.523,0.409-1.044,0.821-1.564,1.234
	c-0.449,0.357-0.544,0.846-0.26,1.343c0.59,1.035,1.182,2.07,1.775,3.104c0.29,0.506,0.762,0.672,1.299,0.456
	c0.616-0.247,1.23-0.497,1.843-0.75c0.08-0.033,0.136-0.029,0.212,0.018c0.313,0.193,0.631,0.378,0.952,0.558
	c0.081,0.046,0.118,0.096,0.131,0.188c0.092,0.677,0.186,1.353,0.285,2.029c0.076,0.52,0.466,0.852,0.993,0.852
	c1.202,0,2.405,0,3.607,0c0.519,0,0.918-0.324,0.997-0.834c0.105-0.675,0.194-1.352,0.288-2.028c0.013-0.096,0.046-0.16,0.141-0.212
	c0.31-0.169,0.614-0.349,0.914-0.535c0.092-0.057,0.162-0.071,0.265-0.028c0.594,0.248,1.19,0.492,1.788,0.731
	c0.581,0.232,1.033,0.072,1.342-0.469c0.587-1.026,1.174-2.052,1.76-3.079c0.281-0.493,0.185-0.994-0.258-1.346
	c-0.524-0.416-1.051-0.828-1.572-1.247c-0.046-0.037-0.078-0.117-0.079-0.178C550.636,154.821,550.646,154.449,550.637,154.076z"/>
<g>
	<g>
		<path d="M682.42,260.768c0,0.164,0.008,0.297,0.008,0.375c0,0.047-0.008,0.094-0.008,0.148c0.109,2.773,2.397,4.999,5.201,4.999
			h46.289v-5.1c0-1.015,0.828-1.843,1.843-1.843c1.016,0,1.843,0.828,1.843,1.843v6.943c0,1.015-0.828,1.843-1.843,1.843H687.34
			c-0.094,0-0.188-0.016-0.281-0.031c-4.647-0.289-8.341-4.155-8.341-8.872c0-0.109,0.016-0.211,0.016-0.32
			c-0.055-5.475,0-47.14,0.008-51.678c-0.008-0.062-0.015-0.125-0.015-0.195c0-4.912,3.991-8.903,8.903-8.903h0.016v42.861
			c0,0.492,0.164,0.945,0.429,1.171c0.265,0.226,0.578,0.188,0.82-0.094l6.49-7.661l6.146,7.638
			c0.141,0.172,0.305,0.265,0.476,0.265c0.125,0,0.242-0.047,0.352-0.14c0.265-0.226,0.438-0.68,0.438-1.179v-42.853h32.965
			c1.015,0,1.843,0.828,1.843,1.843v52.139c0,1.015-0.828,1.843-1.843,1.843h-0.031c-0.133,0.031-0.273,0.054-0.422,0.054h-47.687
			C684.849,255.863,682.584,258.034,682.42,260.768L682.42,260.768z M682.42,260.768"/>
	</g>
</g>
<g>
	<path d="M524.904,202.86c-17.737,0-32.115,14.379-32.115,32.115c0,17.737,14.379,32.115,32.115,32.115
		c17.737,0,32.115-14.379,32.115-32.115h-32.115V202.86z"/>
	<path d="M530.673,197.091v32.115h32.115C562.789,211.469,548.41,197.091,530.673,197.091z"/>
</g>
<g>
	<path d="M638.872,197.091h-33.619c-2.705,0.003-4.897,2.193-4.904,4.898v29.219c0.001,1.078,0.818,1.98,1.89,2.087h39.444
		c0.557,0.002,1.093-0.219,1.487-0.612c0.395-0.394,0.617-0.928,0.617-1.486v-29.207
		C643.781,199.279,641.581,197.088,638.872,197.091z M631.51,217.355h-18.867c-0.826,0.086-1.628-0.306-2.068-1.011
		c-0.44-0.704-0.44-1.598,0-2.302c0.44-0.704,1.242-1.097,2.068-1.011l0.029-0.023h18.838c1.2,0,2.173,0.973,2.173,2.174
		C633.684,216.382,632.711,217.355,631.51,217.355z"/>
	<g>
		<path d="M602.616,260.164c-0.951-0.852-10.274-8.938-11.353-9.918c-0.824-0.81-2.124-0.878-3.028-0.157
			c-0.741,0.583-3.804,2.917-4.667,3.5c-1.354,0.916-0.158,2.445,0.618,3.162c0.776,0.718,9.078,8.267,10.303,9.457
			c1.225,1.19,2.491,1.062,3.419,0.298c0.927-0.764,3.063-2.561,4.434-3.5C603.713,262.065,603.573,261.015,602.616,260.164
			L602.616,260.164z"/>
		<path d="M652.937,241.173c-1.249-1.873-4.411-1.132-5.957-0.222c-2.386,1.4-9.562,7.41-12.141,7.73
			c-2.579,0.321-9.457-0.175-14.375-0.63c-5.56-0.513-3.39-2.713-2.515-2.946c0.875-0.233,11.534-0.799,15.093-1.202
			c3.203-0.362,2.742-3.448-0.869-3.577c-3.612-0.128-19.965-1.208-25.461-0.846c-5.496,0.362-13.565,7.584-13.565,7.584
			l0.298,1.167l11.709,10.14l1.564-0.123c1.654-0.921,3.418-1.627,5.251-2.1c2.386-0.49,15.589,0.934,20.151,0.286
			c4.563-0.648,16.307-10.268,18.886-12.363c1.266-1.015,2.164-2.48,1.902-2.876L652.937,241.173z"/>
	</g>
	<path d="M652.482,241.341"/>
</g>
<path d="M339.271,363.054l0.041,0.243l-3.933,0.498c0,0-11.168-3.65-11.168-7.885v-2.05c0-3.954,5.151-7.939,11.178-10.999
	C335.672,342.722,338.897,360.936,339.271,363.054L339.271,363.054z M368.033,308.871c0-9.672-13.164-14.502-13.164-14.502
	c-1.865-0.841-3.712-0.651-5.623,0c0,0-13.167,4.241-13.167,14.502c0,1.529-2.776,1.202-3.697,6.05h39.353
	C370.062,310.041,368.033,310.4,368.033,308.871z M368.715,342.869c-0.336-0.162-3.343,17.515-3.764,20.005l-0.073,0.435l0,0
	l3.89,0.499c0,0,11.15-3.644,11.15-7.896v-2.05C379.918,349.824,374.835,345.864,368.715,342.869z M365.983,341.86
	c-1.626-0.698-3.255-1.538-4.877-2.077c-0.4-0.13-2.951-1.279-1.361-6.116h-0.025c3.758-3.853,6.402-7.616,6.402-15.94h-28.036
	c0,8.409,2.583,12.139,6.352,15.988c1.636,4.265-1.279,5.85-1.894,6.068c-1.643,0.596-2.743,1.307-4.415,2.077
	c-0.3,0.138,2.611,20.107,2.779,21.243c1.655-0.191,3.313-0.358,4.973-0.498l6.116,1.203l6.273-1.201
	c2.058,0.175,3.915,0.377,4.951,0.498C363.385,361.978,366.386,342.024,365.983,341.86z"/>
<path d="M442.807,345.502l21.803-21.368c0.382-0.37,0.833-0.66,1.328-0.855c0.487-0.199,1.009-0.303,1.536-0.306
	c0.521,0.003,1.036,0.108,1.516,0.308c0.494,0.205,0.947,0.496,1.339,0.859l3.45,3.395c0.759,0.745,1.186,1.764,1.184,2.828
	c-0.001,1.063-0.43,2.082-1.19,2.826l-21.858,21.416L442.807,345.502z M440.297,347.958l-3.523,3.451l-3.288,10.781l-0.524,1.616
	l13.149-3.511l3.296-3.229L440.297,347.958z M456.91,355.278 M433.246,349.267l7.08-6.938l0.002,0.002l1.269-1.243h-22.064
	c-0.966,0-1.75-0.784-1.75-1.75s0.784-1.75,1.75-1.75h25.635l15.74-15.426v-23.355c0-2.761-2.239-5-5-5h-35.829l2.669,3.134
	c3.218,3.778,2.761,9.47-1.017,12.688l-3.152,2.684c0.275-0.18,0.602-0.286,0.955-0.286h26.751c0.966,0,1.75,0.784,1.75,1.75
	s-0.784,1.75-1.75,1.75h-26.751c-0.966,0-1.75-0.784-1.75-1.75c0-0.461,0.182-0.878,0.474-1.19l-6.794,5.785l-6.554,5.581v30.355
	c0,2.761,2.239,5,5,5h20.276L433.246,349.267z M419.532,320.547h26.751c0.966,0,1.75,0.784,1.75,1.75s-0.784,1.75-1.75,1.75h-26.751
	c-0.966,0-1.75-0.784-1.75-1.75S418.566,320.547,419.532,320.547z M419.532,329.067h26.751c0.966,0,1.75,0.784,1.75,1.75
	s-0.784,1.75-1.75,1.75h-26.751c-0.966,0-1.75-0.784-1.75-1.75S418.566,329.067,419.532,329.067z M455.091,357.095l0.001,0.001
	l-2.256,2.211h3.071c2.761,0,5-2.239,5-5v-2.911L455.091,357.095z M404.908,318.698l14.228-12.116
	c2.102-1.79,2.355-4.946,0.565-7.048l-4.877-5.727L404.908,318.698z"/>
<path style="fill:#020202;" d="M213.83,282.943"/>
<g>
	<path style="fill:#020202;" d="M522.366,350.224c0.944-2.054,3.014-3.484,5.423-3.484c2.409,0,4.479,1.43,5.423,3.484
		c10.079-0.657,19.422-3.152,23.864-7.5c0.15-0.147,0.016-0.418,0.016-0.628c0-6.295-1.992-12.122-5.371-16.898
		c-1.043-1.41-1.387-1.812-2.989-3.588c-2.157-2.204-4.666-4.056-7.425-5.493v15.554c0,1.322-1.071,2.393-2.393,2.393
		c-1.322,0-2.393-1.071-2.393-2.393v-17.884c-1.799-1.205-5.032-2.011-8.73-2.011c-3.698,0-6.932,0.806-8.73,2.011v17.884
		c0,1.322-1.071,2.393-2.393,2.393c-1.322,0-2.393-1.071-2.393-2.393v-15.554c-2.76,1.437-5.269,3.289-7.426,5.493
		c-1.602,1.776-1.946,2.177-2.989,3.588c-3.379,4.776-5.371,10.603-5.371,16.898c0,0.211-0.134,0.482,0.016,0.628
		C502.946,347.072,512.287,349.568,522.366,350.224z"/>
	<path style="fill:#020202;" d="M562.167,349.846c-1.302-2.299-4.223-3.109-6.523-1.806c-5.777,3.271-13.456,5.336-22.034,5.979
		c-0.597,2.667-2.975,4.662-5.822,4.662s-5.225-1.995-5.822-4.662c-8.578-0.643-16.256-2.709-22.033-5.98
		c-2.3-1.305-5.22-0.495-6.523,1.806c-1.302,2.3-0.494,5.22,1.806,6.523c8.595,4.868,19.859,7.44,32.573,7.44
		c12.713,0,23.976-2.572,32.57-7.439C562.66,355.066,563.469,352.146,562.167,349.846z"/>
</g>
<path d="M405.092,264.25l8.265-20.164c0.317-0.773,1.07-1.278,1.905-1.278h36.555c0.714,0,1.377-0.37,1.752-0.977l4.327-7.002
	c0.375-0.607,1.038-0.977,1.752-0.977h13.226c1.48,0,2.477,1.515,1.891,2.875l-12.554,29.12c-0.325,0.755-1.069,1.244-1.891,1.244
	h-53.323C405.533,267.091,404.536,265.605,405.092,264.25z M460.936,226.899h-5.375v4.543c1.1-1.011,2.542-1.591,4.088-1.591h3.287
	v-0.953C462.936,227.794,462.04,226.899,460.936,226.899z M412.061,226.899h-5.125c-1.105,0-2,0.895-2,2v25.185l4.72-11.515
	c0.495-1.208,1.35-2.18,2.405-2.838V226.899z M451.561,213.472v27.019h-35.5v-27.019c0-2.761,2.239-5,5-5h25.5
	C449.322,208.472,451.561,210.711,451.561,213.472z M441.232,223.119h-6.058v-6.058c0-0.753-0.61-1.363-1.363-1.363
	s-1.363,0.61-1.363,1.363v6.058h-6.058c-0.753,0-1.363,0.61-1.363,1.363s0.61,1.363,1.363,1.363h6.058v6.058
	c0,0.753,0.61,1.363,1.363,1.363s1.363-0.61,1.363-1.363v-6.058h6.058c0.753,0,1.363-0.61,1.363-1.363
	S441.984,223.119,441.232,223.119z"/>
<g>
	<g>
		<path d="M395.027,32.096h-12c-0.552,0-1,0.448-1,1v12c0,0.552,0.448,1,1,1h12c0.552,0,1-0.448,1-1v-12
			C396.027,32.544,395.579,32.096,395.027,32.096L395.027,32.096z M383.027,36.655v-3.559h12v3.559H383.027L383.027,36.655z
			 M383.027,45.096v-7.441h12v7.441H383.027L383.027,45.096z"/>
	</g>
	<g>
		<path d="M391.232,34.405h-6.469c-0.276,0-0.5,0.224-0.5,0.5c0,0.276,0.224,0.5,0.5,0.5h6.469c0.276,0,0.5-0.224,0.5-0.5
			C391.732,34.629,391.508,34.405,391.232,34.405L391.232,34.405z"/>
	</g>
	<g>
		<path d="M393.29,34.405c-0.276,0-0.5,0.224-0.5,0.5c0,0.276,0.224,0.5,0.5,0.5c0.276,0,0.5-0.224,0.5-0.5
			C393.79,34.629,393.566,34.405,393.29,34.405L393.29,34.405z"/>
	</g>
</g>
<g>
	<g>
		<path d="M404.936,34.405c-0.276,0-0.5,0.224-0.5,0.5c0,0.276,0.224,0.5,0.5,0.5c0.276,0,0.5-0.224,0.5-0.5
			C405.436,34.629,405.212,34.405,404.936,34.405L404.936,34.405z"/>
	</g>
	<g>
		<path d="M410.936,32.096h-12c-0.552,0-1,0.448-1,1v12c0,0.552,0.448,1,1,1h12c0.552,0,1-0.448,1-1v-12
			C411.936,32.544,411.488,32.096,410.936,32.096L410.936,32.096z M401.95,36.558c-0.178,0-0.344-0.096-0.433-0.25l-1.853-3.209
			h10.543l-1.853,3.209c-0.089,0.154-0.255,0.25-0.433,0.25H401.95L401.95,36.558z M401.95,37.558h5.972
			c0.534,0,1.032-0.287,1.299-0.75l1.715-2.971v11.259h-12V33.837l1.715,2.971C400.918,37.271,401.416,37.558,401.95,37.558
			L401.95,37.558z"/>
	</g>
</g>
<g>
	<path d="M425.108,41.51h-6.469c-0.276,0-0.5,0.224-0.5,0.5s0.224,0.5,0.5,0.5h6.469c0.276,0,0.5-0.224,0.5-0.5
		S425.385,41.51,425.108,41.51z"/>
	<circle cx="416.582" cy="38.947" r="0.5"/>
	<path d="M418.14,38.947c0,0.276,0.224,0.5,0.5,0.5h6.469c0.276,0,0.5-0.224,0.5-0.5s-0.224-0.5-0.5-0.5h-6.469
		C418.363,38.447,418.14,38.671,418.14,38.947z"/>
	<circle cx="416.582" cy="42.01" r="0.5"/>
	<path d="M426.845,32.096h-5.059c-0.369,0-0.707,0.203-0.881,0.528l-1.223,2.282h-4.841c-0.55,0-0.995,0.446-0.995,0.995v9.195
		c0,0.552,0.448,1,1,1h12c0.552,0,1-0.448,1-1v-12C427.845,32.544,427.398,32.096,426.845,32.096z M426.845,45.096h-12l-0.005-9.191
		h4.841h0.599l0.283-0.528l1.223-2.282h5.059V45.096z"/>
</g>
<path d="M426.845,57.978h-5.059c-0.369,0-0.707,0.203-0.881,0.528l-1.223,2.282h-4.841c-0.55,0-0.995,0.446-0.995,0.995v9.195
	c0,0.552,0.448,1,1,1h12c0.552,0,1-0.448,1-1v-12C427.845,58.426,427.398,57.978,426.845,57.978z M417.082,68.391h-1v-1h1V68.391z
	 M417.082,65.329h-1v-1h1V65.329z M425.608,68.391h-7.469v-1h7.469V68.391z M425.608,65.329h-7.469v-1h7.469V65.329z"/>
<path d="M395.027,57.978h-12c-0.552,0-1,0.448-1,1v12c0,0.552,0.448,1,1,1h12c0.552,0,1-0.448,1-1v-12
	C396.027,58.426,395.579,57.978,395.027,57.978z M392.79,60.287h1v1h-1V60.287z M384.264,60.287h7.469v1h-7.469V60.287z
	 M395.027,63.537h-12v-1h12V63.537z"/>
<path d="M399.09,57.978l0.574,1.003l1.853,3.209c0.089,0.154,0.255,0.25,0.433,0.25h5.972c0.178,0,0.344-0.096,0.433-0.25
	l1.853-3.209l0.594-1.003H399.09z M405.436,61.287h-1v-1h1V61.287z M411.936,58.978v12c0,0.552-0.448,1-1,1h-12
	c-0.552,0-1-0.448-1-1v-12c0-0.217,0.084-0.407,0.201-0.571l0.799,1.311l1.715,2.971c0.267,0.463,0.765,0.75,1.299,0.75h5.972
	c0.534,0,1.032-0.287,1.299-0.75l1.715-2.971l0.794-1.318C411.851,58.565,411.936,58.758,411.936,58.978z"/>
<path d="M455.544,41.449c-4.366-4.366-11.439-4.366-15.806,0c-4.366,4.364-4.366,11.442,0,15.806c0,0,7.904,7.557,7.904,12.417
	c0-4.86,7.901-12.417,7.901-12.417C459.912,52.891,459.912,45.813,455.544,41.449 M447.548,53.963c-2.451,0-4.434-1.983-4.434-4.434
	c0-2.451,1.983-4.433,4.434-4.433c2.451,0,4.433,1.983,4.433,4.433C451.982,51.98,449.999,53.963,447.548,53.963L447.548,53.963z
	 M447.548,53.963"/>
<path d="M458.659,67.892c-0.293-0.692-1.017-1.227-1.789-1.615c-1.378-0.641-2.933-1.05-4.486-1.152
	c-0.502-0.071-1.007-0.021-1.51-0.031c1.29,0.425,2.49,0.731,3.209,1.372c0.349,0.316,0.565,0.649,0.565,0.948
	c0.021,0.302-0.152,0.566-0.437,0.811c-0.585,0.492-1.67,0.875-2.835,1.102c-1.168,0.239-2.447,0.338-3.718,0.344
	c-1.271-0.006-2.55-0.104-3.718-0.344c-1.165-0.226-2.25-0.61-2.835-1.102c-0.285-0.244-0.459-0.509-0.437-0.81
	c0-0.299,0.216-0.633,0.565-0.948c0.718-0.641,1.919-0.948,3.209-1.372c-0.496,0.01-0.995-0.041-1.49,0.028
	c-1.57,0.098-3.144,0.506-4.537,1.155c-0.773,0.388-1.496,0.923-1.789,1.615c-0.331,0.681-0.127,1.462,0.396,2.081
	c0.522,0.627,1.294,1.119,2.127,1.509c0.831,0.399,1.752,0.675,2.682,0.91c1.873,0.462,3.852,0.639,5.812,0.656
	c1.96-0.017,3.939-0.194,5.812-0.656c0.93-0.235,1.851-0.511,2.682-0.91c0.833-0.39,1.604-0.882,2.127-1.509
	C458.786,69.353,458.99,68.573,458.659,67.892z"/>
<path d="M486.495,66.276c-1.378-0.641-2.933-1.05-4.486-1.152c-0.502-0.071-1.007-0.021-1.51-0.031
	c1.29,0.425,2.49,0.731,3.209,1.372c0.349,0.316,0.565,0.649,0.565,0.948c0.021,0.302-0.152,0.566-0.437,0.811
	c-0.585,0.492-1.67,0.875-2.835,1.102c-1.168,0.239-2.447,0.338-3.718,0.344c-0.005,0-0.01-0.001-0.016-0.001
	c0.002-4.86,7.901-12.415,7.901-12.415c4.369-4.364,4.369-11.442,0.001-15.806c-4.366-4.366-11.439-4.366-15.806,0
	c-4.366,4.364-4.366,11.442,0,15.806c0,0,7.901,7.555,7.903,12.415c-1.266-0.007-2.539-0.105-3.702-0.343
	c-1.165-0.226-2.25-0.61-2.835-1.102c-0.285-0.244-0.459-0.509-0.437-0.81c0-0.299,0.216-0.633,0.565-0.948
	c0.718-0.641,1.919-0.948,3.209-1.372c-0.496,0.01-0.995-0.041-1.49,0.028c-1.57,0.098-3.144,0.507-4.537,1.155
	c-0.773,0.388-1.496,0.923-1.789,1.615c-0.331,0.681-0.127,1.462,0.396,2.081c0.522,0.627,1.294,1.119,2.127,1.509
	c0.831,0.399,1.752,0.675,2.682,0.91c1.873,0.462,3.852,0.639,5.812,0.656c1.96-0.017,3.939-0.194,5.812-0.656
	c0.93-0.235,1.851-0.511,2.682-0.91c0.833-0.39,1.604-0.882,2.127-1.509c0.523-0.619,0.727-1.4,0.396-2.081
	C487.991,67.2,487.267,66.664,486.495,66.276z M472.74,49.53c0-2.451,1.983-4.433,4.434-4.433s4.433,1.983,4.433,4.433
	c0,2.451-1.983,4.434-4.433,4.434S472.74,51.98,472.74,49.53z"/>
<g>
	<g>
		<path d="M496.642,52.303h0.072c0.495-0.001,0.98,0.144,1.393,0.417c0.344-1.101,1.363-1.851,2.517-1.854
			c0.518-0.001,1.025,0.144,1.465,0.417c0.344-1.101,1.363-1.851,2.517-1.854c0.453-0.002,0.9,0.11,1.298,0.327v-2.767
			c-0.019-0.718,0.253-1.412,0.754-1.926c0.501-0.514,1.188-0.805,1.906-0.805c0.727-0.002,1.425,0.284,1.94,0.797
			c0.515,0.512,0.806,1.208,0.809,1.935v10.598l1.67-1.66c1.108-0.99,2.783-0.99,3.891,0c1.177,1.065,1.268,2.882,0.205,4.061
			l-7.675,7.625c-0.154,0.154-0.327,0.288-0.515,0.399c-1.415,1.147-3.019,1.823-6.412,1.823c-7.747,0-8.468-4.182-8.468-9.34
			v-5.453c-0.027-0.716,0.239-1.412,0.735-1.929C495.24,52.596,495.926,52.304,496.642,52.303L496.642,52.303z M495.455,60.503
			c0,4.362,0.023,7.904,7.021,7.904c2.969,0,4.746-0.663,6.094-1.996l7.267-7.228c0.274-0.262,0.425-0.627,0.417-1.006
			c-0.009-0.379-0.176-0.737-0.462-0.986c-0.557-0.529-1.424-0.547-2.002-0.041l-2.373,2.364l-1.562,1.555V47.29
			c-0.003-0.717-0.587-1.296-1.304-1.294c-0.335,0.003-0.654,0.143-0.882,0.387c-0.228,0.245-0.347,0.572-0.327,0.906v8.766h-0.014
			c0.009,0.047,0.014,0.094,0.014,0.141c0,0.401-0.325,0.725-0.725,0.725c-0.401,0-0.725-0.325-0.725-0.725
			c0-0.047,0.005-0.095,0.014-0.141h-0.014v-3.595c0-0.695-0.563-1.258-1.258-1.258s-1.258,0.563-1.258,1.258v4.734h-0.014
			c0.009,0.047,0.014,0.094,0.014,0.141c0,0.401-0.325,0.725-0.725,0.725c-0.401,0-0.725-0.325-0.725-0.725
			c0-0.047,0.005-0.095,0.014-0.141h-0.014V53.89c0.015-0.337-0.108-0.665-0.341-0.909c-0.232-0.244-0.554-0.383-0.891-0.385
			c-0.337-0.002-1.298,0.08-1.298,1.294v4.164h-0.014c0.009,0.047,0.014,0.094,0.014,0.141c0,0.191-0.077,0.375-0.213,0.509
			c-0.136,0.135-0.321,0.209-0.512,0.207c-0.189,0-0.371-0.076-0.503-0.211c-0.133-0.135-0.206-0.317-0.203-0.506
			c0-0.047,0.005-0.095,0.014-0.141h-0.014v-2.843c0.009-0.339-0.12-0.668-0.357-0.912c-0.237-0.244-0.562-0.381-0.902-0.382
			c-0.345-0.017-0.681,0.115-0.922,0.363c-0.241,0.247-0.365,0.586-0.34,0.931L495.455,60.503z M512.376,51.068v-2.414
			c0.237-0.53,0.36-1.104,0.363-1.684c0.003-1.592-0.906-3.044-2.339-3.737c-1.433-0.693-3.136-0.503-4.381,0.488
			c-1.245,0.991-1.813,2.608-1.46,4.159c-0.503,0.018-0.98,0.226-1.335,0.583c-0.139-0.487-0.21-0.99-0.211-1.496
			c0-2.553,1.733-4.78,4.207-5.408c2.475-0.628,5.059,0.504,6.276,2.749s0.755,5.028-1.121,6.76H512.376z M512.376,51.068"/>
	</g>
</g>
<path d="M547.641,51.771c0.717,0.001,1.402,0.293,1.899,0.81c0.497,0.516,0.762,1.213,0.735,1.929v5.453
	c0,5.158-0.721,9.34-8.468,9.34c-3.393,0-4.997-0.676-6.412-1.823c-0.188-0.11-0.361-0.244-0.515-0.399l-7.675-7.625
	c-1.063-1.178-0.972-2.995,0.205-4.061c1.108-0.99,2.783-0.99,3.891,0l1.67,1.66V41.275c0.002-0.727,0.293-1.423,0.809-1.935
	c0.515-0.512,1.213-0.799,1.94-0.797c0.718,0.001,1.405,0.291,1.906,0.805c0.501,0.514,0.773,1.209,0.754,1.926v7.95
	c0.398-0.216,0.845-0.328,1.298-0.327c1.154,0.002,2.172,0.753,2.517,1.854c0.44-0.273,0.947-0.418,1.465-0.417
	c1.154,0.002,2.172,0.753,2.517,1.854c0.413-0.273,0.898-0.418,1.393-0.417H547.641L547.641,51.771z"/>
<path d="M548.001,60.542"/>
<g>
	<rect x="572.11" y="53.715" style="fill:#A8AEB1;" width="6" height="4"/>
	<rect x="580.33" y="53.715" style="fill:#A8AEB1;" width="6" height="4"/>
	<rect x="580.33" y="58.964" style="fill:#A8AEB1;" width="6" height="4"/>
	<rect x="572.11" y="58.964" style="fill:#A8AEB1;" width="6" height="4"/>
	<path style="fill:#A8AEB1;" d="M589.685,46.756c-0.343-0.347-0.81-0.542-1.296-0.542h-1.834v0.925c0,1.533-1.231,2.776-2.75,2.776
		c-1.519,0-2.75-1.243-2.75-2.776v-0.925h-3.668v0.925c0,1.533-1.231,2.776-2.75,2.776c-1.519,0-2.75-1.243-2.75-2.776v-0.925
		h-1.834c-1.012,0-1.834,0.828-1.834,1.851v16.658c0.001,1.022,0.822,1.849,1.834,1.849h18.334c1.012,0,1.832-0.828,1.832-1.851
		V48.064C590.221,47.574,590.028,47.103,589.685,46.756z M570.053,64.721l0.004-12.875h18.319l0.012,12.875H570.053z"/>
	<path style="fill:#A8AEB1;" d="M574.608,48.99c0.997,0,1.804-0.816,1.804-1.821v-2.775c0-1.006-0.807-1.821-1.803-1.822
		c-0.996,0-1.805,0.814-1.805,1.82v2.775C572.804,48.174,573.613,48.99,574.608,48.99z"/>
	<path style="fill:#A8AEB1;" d="M583.776,48.99c0.997,0,1.804-0.816,1.804-1.821v-2.775c0-1.006-0.807-1.821-1.803-1.822
		c-0.996,0-1.804,0.814-1.805,1.82v2.775C581.972,48.174,582.78,48.99,583.776,48.99z"/>
</g>
<g>
	<g>
		<path d="M630.222,62.209c0,0.641,0.52,1.161,1.161,1.161h9.301c0.641,0,1.161-0.52,1.161-1.161c0-0.641-0.521-1.161-1.161-1.161
			h-9.301C630.742,61.051,630.222,61.568,630.222,62.209L630.222,62.209z M640.834,67.866h-18.588c-0.641,0-1.161,0.52-1.161,1.161
			c0,0.641,0.52,1.161,1.161,1.161h18.588c0.641,0,1.161-0.521,1.161-1.161C641.995,68.387,641.474,67.866,640.834,67.866
			L640.834,67.866z M635.089,44.762c0.547-0.742,0.387-1.786-0.355-2.332l-6.038-4.447c-0.742-0.547-1.786-0.387-2.333,0.355
			l-0.494,0.67l8.725,6.428L635.089,44.762z M609.467,69.48c-0.049,0.468,0.407,0.81,0.843,0.621
			c0.52-0.228,5.407-2.358,7.684-3.354l-7.599-5.599C610.108,63.676,609.509,69.07,609.467,69.48L609.467,69.48z M625.176,39.945
			l-14.047,19.057l8.725,6.428l14.047-19.057L625.176,39.945z M620.576,61.067c-0.325,0.452-0.956,0.556-1.409,0.231
			c-0.452-0.325-0.553-0.956-0.228-1.409l9.454-13.11c0.325-0.452,0.956-0.556,1.409-0.228c0.452,0.325,0.553,0.956,0.228,1.409
			L620.576,61.067z M620.576,61.067"/>
	</g>
</g>
<g>
	<path d="M681.209,67.966h-7.182c0.75-0.184,1.31-0.858,1.31-1.664v-5.165h5.165c0.949,0,1.719-0.77,1.719-1.719
		c0-0.949-0.771-1.719-1.719-1.719h-5.165v-5.165c0-0.949-0.77-1.719-1.719-1.719c-0.949,0-1.719,0.771-1.719,1.719v5.165h-5.165
		c-0.949,0.005-1.719,0.77-1.719,1.719c0,0.949,0.77,1.719,1.719,1.719h5.165v5.165c0.004,0.807,0.561,1.48,1.31,1.664H662.62
		c-0.641,0-1.161,0.52-1.161,1.161c0,0.641,0.52,1.161,1.161,1.161h18.588c0.641,0,1.161-0.521,1.161-1.161
		C682.37,68.487,681.849,67.966,681.209,67.966z"/>
	<path d="M675.464,44.762c0.547-0.742,0.387-1.786-0.355-2.332l-6.038-4.447c-0.742-0.547-1.786-0.387-2.333,0.355l-0.494,0.67
		l8.725,6.428L675.464,44.762z"/>
	<path d="M649.842,69.48c-0.049,0.468,0.407,0.81,0.843,0.621c0.52-0.228,5.407-2.358,7.684-3.354l-7.599-5.599
		C650.483,63.676,649.884,69.07,649.842,69.48z"/>
	<path d="M663.015,59.417c0-2.04,1.664-3.708,3.708-3.719h0.679l2.523-3.422c0.103-1.467,1.047-2.698,2.362-3.205l1.989-2.699
		l-8.725-6.428l-14.047,19.057l8.725,6.428l3.2-4.341C663.173,60.583,663.015,60.021,663.015,59.417z"/>
</g>
<g>
	<path d="M691.412,41.93h32.611c1.18,0,2.136-0.956,2.136-2.136c0-1.18-0.956-2.136-2.136-2.136h-32.611
		c-1.18,0-2.136,0.956-2.136,2.136C689.276,40.974,690.232,41.93,691.412,41.93z"/>
	<path d="M724.023,66.014h-32.611c-1.18,0-2.136,0.956-2.136,2.136c0,1.18,0.956,2.136,2.136,2.136h32.611
		c1.18,0,2.136-0.956,2.136-2.136C726.159,66.97,725.203,66.014,724.023,66.014z"/>
	<path d="M718.124,43.482c-0.79,0-1.431,0.641-1.431,1.431v9.059v9.059c0,0.79,0.641,1.431,1.431,1.431
		c0.471,0,0.912-0.232,1.179-0.62l6.397-9.304c0.235-0.341,0.235-0.792,0-1.133l-6.397-9.304
		C719.036,43.714,718.595,43.482,718.124,43.482z"/>
	<path d="M691.867,51.837h21.826v-4.182c0-0.552-0.448-1-1-1h-20.826c-1.431,0-2.591,1.16-2.591,2.591
		S690.436,51.837,691.867,51.837z"/>
	<path d="M691.867,61.289h20.826c0.552,0,1-0.448,1-1v-4.182h-21.826c-1.431,0-2.591,1.16-2.591,2.591
		C689.276,60.129,690.436,61.289,691.867,61.289z"/>
</g>
<g>
	<g>
		<path d="M451.249,409.206h-4.7v-4.7c0-2.596-2.104-4.7-4.7-4.7h-23.5v-2.35c0-1.298-1.052-2.35-2.35-2.35H383.1
			c-1.298,0-2.35,1.052-2.35,2.35v68.149c0,2.596,2.104,4.7,4.7,4.7h39.949v-4.7H385.45v-65.799h28.2v9.4H392.5v4.7h58.749v21.15
			h4.7v-21.15C455.949,411.31,453.845,409.206,451.249,409.206L451.249,409.206z M441.849,409.206h-23.5v-4.7h23.5V409.206z
			 M439.499,439.756h4.7v9.4h9.4v4.7h-9.4v9.4h-4.7v-9.4h-9.4v-4.7h9.4V439.756z M439.499,439.756"/>
	</g>
</g>
<g>
	<path d="M736.539,70.352c-1.061,0-1.923-0.863-1.923-1.923V51.698c0-0.742,0.604-1.346,1.346-1.346h8.077
		c0.742,0,1.346,0.604,1.346,1.346v3.364h7.308c1.061,0,1.923,0.863,1.923,1.923v5.54h-2.692v-4.771h-11.891v-2.692h2.66v-2.018
		h-5.385v14.615h8.048v2.692H736.539z"/>
	<polygon points="754.616,64.048 750.414,64.048 750.414,59.846 748.313,59.846 748.313,64.048 744.11,64.048 744.11,66.149 
		748.313,66.149 748.313,70.352 750.414,70.352 750.414,66.149 754.616,66.149 	"/>
</g>
<g>
	<polygon points="775.974,62.777 775.974,64.667 780.587,70.352 785.2,64.667 785.2,62.777 780.587,62.777 	"/>
	<path d="M783.276,55.062h-7.308v-3.364c0-0.742-0.604-1.346-1.346-1.346h-8.077c-0.742,0-1.346,0.604-1.346,1.346v16.731
		c0,1.06,0.862,1.923,1.923,1.923h7.9v-2.692h-7.131V53.044h5.385v2.018h-2.66v2.692h11.891v4.07h2.692v-4.84
		C785.2,55.925,784.337,55.062,783.276,55.062z"/>
</g>
<g>
	<path d="M810.631,50.352h-12.861c-1.176,0-2.136,0.959-2.136,2.147v0.708h17.133v-0.72
		C812.767,51.311,811.807,50.352,810.631,50.352z"/>
	<path d="M810.985,54.635h-13.569c-0.788,0-1.371,0.64-1.302,1.428l1.165,12.861c0.069,0.777,0.777,1.428,1.553,1.428h10.714
		c0.788,0,1.485-0.64,1.553-1.428l1.176-12.861C812.355,55.275,811.773,54.635,810.985,54.635z M801.344,67.485h-2.147l-0.708-9.994
		h2.856V67.485z M805.628,67.485h-2.856v-9.994h2.856V67.485z M809.203,67.485h-2.147v-9.994h2.855L809.203,67.485z"/>
</g>
<g>
	<g>
		<path d="M598.54,397.243h-28.978c-2.651,0-4.813,2.162-4.813,4.838v1.596h38.603v-1.621
			C603.353,399.405,601.191,397.243,598.54,397.243 M590.099,394.026l0.721,5.07h-13.537l0.721-5.07H590.099 M590.485,390.81
			h-12.867c-1.338,0-2.574,1.081-2.754,2.393l-0.952,6.743c-0.18,1.312,0.746,2.393,2.084,2.393h16.084
			c1.338,0,2.265-1.081,2.085-2.393l-0.952-6.743C593.059,391.89,591.823,390.81,590.485,390.81 M599.338,406.894h-30.573
			c-1.776,0-3.088,1.441-2.934,3.217l2.625,28.978c0.154,1.75,1.75,3.217,3.5,3.217h24.14c1.776,0,3.345-1.441,3.5-3.217
			l2.651-28.978C602.426,408.335,601.114,406.894,599.338,406.894 M577.618,435.846h-4.838l-1.596-22.518h6.434V435.846z
			 M587.268,435.846h-6.434v-22.518h6.434V435.846z M595.323,435.846h-4.838v-22.518h6.434L595.323,435.846z M595.323,435.846"/>
	</g>
</g>
<path d="M833.39,52.85h-11.254c-1.03,0-1.869,0.84-1.869,1.879v0.62h14.992v-0.63C835.259,53.69,834.419,52.85,833.39,52.85"/>
<path d="M833.7,56.599h-11.874c-0.69,0-1.199,0.56-1.139,1.249l1.019,11.254c0.06,0.68,0.68,1.249,1.359,1.249h9.375
	c0.69,0,1.299-0.56,1.359-1.249l1.029-11.254C834.899,57.158,834.39,56.599,833.7,56.599z M825.264,67.843h-1.879l-0.62-8.746h2.499
	V67.843z M829.012,67.843h-2.499v-8.746h2.499V67.843z M832.141,67.843h-1.879v-8.746h2.499L832.141,67.843z"/>
<path d="M832.141,67.843"/>
<g>
	<path d="M801.118,40.798c0-3.306,2.679-5.985,5.985-5.985c1.348,0,2.59,0.445,3.591,1.198v-7.183c0-1.323-1.072-2.393-2.393-2.393
		h-10.256c-1.323,0-2.393,1.072-2.393,2.393v14.366c0,1.323,1.072,2.393,2.393,2.393h5.467
		C802.06,44.495,801.118,42.756,801.118,40.798z M799.242,30.024h7.863c0.662,0,1.198,0.536,1.198,1.198s-0.536,1.198-1.198,1.198
		h-7.863c-0.662,0-1.198-0.536-1.198-1.198S798.581,30.024,799.242,30.024z M799.327,37.209h-0.085
		c-0.662,0-1.198-0.536-1.198-1.198s0.536-1.198,1.198-1.198h0.085c0.662,0,1.198,0.536,1.198,1.198S799.989,37.209,799.327,37.209z
		"/>
	<path d="M812.389,44.39l-1.626-1.626c0.317-0.588,0.513-1.251,0.513-1.965c0-2.304-1.867-4.171-4.171-4.171
		s-4.171,1.867-4.171,4.171s1.867,4.171,4.171,4.171c0.714,0,1.375-0.196,1.962-0.512l1.627,1.627c0.467,0.467,1.225,0.467,1.693,0
		C812.857,45.615,812.857,44.857,812.389,44.39z"/>
</g>
<g>
	<path d="M853.248,64.56c-0.296,0-0.582,0.123-0.806,0.346l-1.542,1.543v-9.742c0-0.702-0.454-1.155-1.156-1.155
		c-0.69,0-1.155,0.464-1.155,1.155v9.858l-1.659-1.66c-0.224-0.223-0.51-0.346-0.808-0.346s-0.584,0.123-0.808,0.346
		c-0.222,0.216-0.344,0.497-0.346,0.791c-0.001,0.299,0.121,0.587,0.346,0.812l3.5,3.5c0.245,0.244,0.477,0.343,0.802,0.343
		c0.382,0,0.72-0.125,0.93-0.343l3.5-3.5c0.222-0.216,0.344-0.497,0.346-0.791c0.001-0.299-0.121-0.587-0.347-0.813
		C853.827,64.682,853.543,64.56,853.248,64.56z"/>
	<path d="M855.921,50.352h-12.472c-0.648,0-1.057,0.405-1.066,1.055v12.5c0,0.65,0.404,1.055,1.056,1.055s1.056-0.404,1.056-1.055
		V52.451h10.37v11.456c0,0.65,0.405,1.055,1.057,1.055s1.056-0.404,1.056-1.055v-12.5C856.977,50.756,856.572,50.352,855.921,50.352
		z"/>
</g>
<path d="M835.277,52.852"/>
<g>
	<path d="M876.883,66.396c0.565-0.651,0.925-1.442,1.047-2.307c0.167-1.185-0.138-2.364-0.858-3.32
		c-0.72-0.956-1.768-1.574-2.953-1.741c-1.185-0.167-2.363,0.138-3.319,0.858c-0.955,0.72-1.573,1.769-1.74,2.955
		c-0.167,1.185,0.138,2.364,0.858,3.32c0.72,0.956,1.768,1.574,2.953,1.74c0.992,0.14,1.993-0.056,2.854-0.552l2.02,2.682
		c0.12,0.16,0.296,0.263,0.494,0.291c0.198,0.028,0.395-0.023,0.555-0.144c0.33-0.249,0.396-0.72,0.148-1.05L876.883,66.396z
		 M875.987,63.816c-0.094,0.666-0.441,1.255-0.978,1.66c-0.537,0.405-1.199,0.576-1.865,0.482c-0.666-0.094-1.255-0.441-1.659-0.978
		c-0.404-0.537-0.576-1.2-0.482-1.865c0.094-0.666,0.441-1.255,0.978-1.66c0.537-0.405,1.199-0.576,1.865-0.482
		c0.666,0.094,1.255,0.441,1.659,0.978C875.91,62.488,876.081,63.15,875.987,63.816z"/>
	<path d="M877.429,50.352h-11.663c-0.92,0-1.665,0.745-1.665,1.665v16.651c0,0.919,0.745,1.664,1.664,1.664h4.746
		c0.498,0,0.902-0.404,0.902-0.902s-0.404-0.902-0.902-0.902h-4.607V52.156h11.387v5.927c0,0.498,0.404,0.901,0.901,0.901
		s0.901-0.404,0.901-0.901v-6.067C879.093,51.097,878.348,50.352,877.429,50.352z"/>
	<path d="M867.538,55.948h8.117c0.497,0,0.901-0.437,0.901-0.974c0-0.537-0.404-0.974-0.901-0.974h-8.117
		c-0.497,0-0.901,0.437-0.901,0.974C866.637,55.511,867.041,55.948,867.538,55.948z"/>
	<path d="M867.538,58.973h3.198c0.497,0,0.901-0.437,0.901-0.974c0-0.537-0.404-0.974-0.901-0.974h-3.198
		c-0.497,0-0.901,0.437-0.901,0.974C866.637,58.536,867.041,58.973,867.538,58.973z"/>
</g>
<path d="M845.618,60.622"/>
<path style="fill:none;stroke:#999899;stroke-width:0.25;stroke-miterlimit:10;" d="M88,0
	C34.167,45.846-3.654,112.537,0.281,186.575C2.783,233.657,39.554,270,88,270s85.217-36.343,87.719-83.425
	C179.654,112.537,141.833,45.846,88,0z"/>
<g>
	<path d="M897.533,67.435l-2.084-2.078h-7.114l-2.074,2.069v0.428h11.272V67.435z M900.027,66.393h0.011v3.958h-16.282v-3.958h0.003
		l-0.003-0.003l3.542-3.531l0.002,0.003V62.86h9.193v0.007l3.536,3.524L900.027,66.393z M891.897,50.373
		c1.162,0,2.277,0.46,3.099,1.28c0.822,0.819,1.284,1.931,1.284,3.09v2.497c0,2.414-1.963,4.37-4.384,4.37
		c-2.421,0-4.384-1.957-4.384-4.37v-2.497c0-1.16,0.462-2.272,1.284-3.09C889.62,50.833,890.735,50.373,891.897,50.373
		L891.897,50.373z M891.897,52.87c-1.038,0-1.879,0.838-1.879,1.873v2.497c0,1.034,0.841,1.873,1.879,1.873
		c1.037,0,1.879-0.839,1.879-1.873v-2.497C893.776,53.709,892.934,52.871,891.897,52.87L891.897,52.87z M891.897,52.87"/>
	<path d="M898.327,59.933h7.923l-2.434-2.801v0.906h-5.49V59.933z M906.25,60.888h-7.923l2.434,2.801v-0.905h5.49V60.888z
		 M906.25,60.888"/>
</g>
<g>
	<g>
		<path d="M929.199,70.037l-1.588-2.107c0.713-0.825,1.14-1.914,1.14-3.105c0-2.555-1.975-4.622-4.408-4.622
			c-2.433,0-4.408,2.067-4.408,4.622c0,2.555,1.975,4.622,4.408,4.622c0.703,0,1.364-0.173,1.955-0.479l1.619,2.138
			c0.132,0.173,0.529,0.082,0.876-0.214C929.148,70.587,929.331,70.21,929.199,70.037L929.199,70.037z M924.353,68.062
			c-1.751,0-3.166-1.486-3.166-3.319c0-1.832,1.415-3.319,3.166-3.319c1.751,0,3.166,1.486,3.166,3.319
			C927.519,66.576,926.104,68.062,924.353,68.062L924.353,68.062z M919.619,68.449h-5.029c-0.702,0-1.476-0.499-1.476-1.232V53.85
			c0-0.682,0.407-1.161,1.018-1.222h12.217c0.611,0.071,1.018,0.55,1.018,1.222v5.762c0.682,0.458,1.262,1.069,1.7,1.771v-7.788
			c0-1.415-0.825-2.769-2.352-2.769h-0.377v-0.01h-12.665v0.01c-1.588,0.051-2.26,1.374-2.26,2.769v14.039
			c0,1.527,0.876,2.596,2.474,2.596h7.829C920.891,69.823,920.168,69.213,919.619,68.449L919.619,68.449z M925.259,56.191
			c0-0.458-0.356-0.825-0.794-0.825h-8.521c-0.438,0-0.794,0.367-0.794,0.825c0,0.458,0.356,0.825,0.794,0.825h8.532
			C924.903,57.016,925.259,56.649,925.259,56.191L925.259,56.191z M921.278,59.47h-5.335c-0.438,0-0.794,0.366-0.794,0.825
			s0.356,0.825,0.794,0.825h3.584C919.995,60.457,920.586,59.897,921.278,59.47L921.278,59.47z M915.943,63.623
			c-0.438,0-0.794,0.367-0.794,0.825c0,0.458,0.356,0.825,0.794,0.825h2.494c-0.02-0.183-0.02-0.367-0.02-0.55
			c0-0.377,0.031-0.743,0.092-1.1H915.943z M915.943,63.623"/>
	</g>
</g>
</svg>
